<?xml version="1.0" standalone="no"?>
<!DOCTYPE svg PUBLIC "-//W3C//DTD SVG 20010904//EN"
 "http://www.w3.org/TR/2001/REC-SVG-20010904/DTD/svg10.dtd">
<svg version="1.0" xmlns="http://www.w3.org/2000/svg"
 width="512.000000pt" height="512.000000pt" viewBox="0 0 512.000000 512.000000"
 preserveAspectRatio="xMidYMid meet">

<g transform="translate(0.000000,512.000000) scale(0.100000,-0.100000)"
fill="#000000" stroke="none">
<path d="M2493 5020 c-39 -9 -75 -29 -1148 -653 -928 -539 -898 -519 -930
-631 -14 -46 -15 -195 -13 -1207 3 -1067 4 -1156 20 -1185 10 -17 15 -34 12
-36 -2 -3 8 -18 23 -35 27 -27 1936 -1138 2012 -1170 49 -21 153 -13 208 16
98 49 1940 1125 1961 1144 12 11 34 45 47 74 l25 52 0 1199 -1 1198 -26 37
c-14 20 -47 50 -72 66 -139 89 -1948 1122 -1979 1131 -42 11 -92 12 -139 0z
m385 -909 c328 -73 615 -234 834 -470 96 -104 231 -293 217 -304 -5 -5 -467
-271 -496 -286 -20 -10 -25 -6 -60 46 -51 78 -174 206 -248 258 -110 78 -248
137 -390 166 -78 16 -274 16 -350 0 -590 -123 -933 -697 -753 -1261 104 -326
366 -568 706 -652 131 -33 331 -30 467 6 237 62 467 230 581 423 l25 42 125
-74 c68 -41 183 -108 254 -150 72 -43 132 -80 134 -83 2 -4 -19 -41 -46 -82
-237 -352 -593 -593 -1006 -680 -127 -27 -355 -36 -491 -21 -607 71 -1128 492
-1321 1069 -52 155 -71 263 -77 438 -9 249 21 427 107 649 180 458 589 821
1070 946 157 41 234 48 435 44 144 -2 213 -8 283 -24z m1302 -1118 c-10 -49
-20 -103 -23 -120 l-6 -33 74 0 74 0 10 53 c6 28 17 81 24 117 l13 65 97 3
c53 1 97 1 97 -2 0 -2 -9 -48 -20 -101 -28 -137 -29 -135 25 -135 l45 0 0 -95
0 -94 -67 -3 -67 -3 -17 -82 -16 -83 83 0 84 0 0 -95 0 -94 -102 -3 -103 -3
-24 -117 -24 -118 -99 0 c-54 0 -98 2 -98 4 0 2 9 48 20 101 30 145 33 136
-52 133 l-72 -3 -13 -65 c-7 -36 -18 -89 -24 -117 l-10 -53 -95 0 c-74 0 -94
3 -94 14 0 8 9 58 20 111 11 53 20 101 20 106 0 5 -20 9 -45 9 l-45 0 0 95 0
95 65 0 c72 0 63 -9 85 90 16 73 18 70 -70 70 l-80 0 0 95 0 95 100 0 c95 0
100 1 104 23 3 12 12 60 21 107 9 47 19 93 21 103 5 15 19 17 103 17 l98 0
-17 -87z"/>
<path d="M4100 2601 c-5 -21 -13 -59 -16 -85 l-7 -47 74 3 73 3 17 83 16 82
-73 0 -73 0 -11 -39z"/>
</g>
</svg>
